# xmcd CD database file
#
# Track frame offsets:
#	182
#	11677
#	35597
#	50950
#	63817
#	76410
#	83410
#	90920
#	106625
#	116582
#	126155
#	134660
#	146527
#	159415
#	172642
#	182765
#	191287
#	199947
#	209327
#	218550
#	230617
#	240410
#	249750
#	257757
#	272962
#
# Disc length: 3724 seconds
#
# Revision: 0
# Processed by: cddbd v1.4PL0 Copyright (c) Steve Scherf et al.
# Submitted via: CDex 1.50
#
DISCID=4c0e8a19
DTITLE=Claude Gallenca - Mozaïque
DYEAR=1993
DGENRE=New Age
TTITLE0=L'enfant des sources
TTITLE1=Atlantide
TTITLE2=Cavatina
TTITLE3=Désert
TTITLE4=Ballet des Ores - Carillon de nuit
TTITLE5=Ballet des Ores - Ombres de feu
TTITLE6=Ballet des Ores - Danse des cerfs
TTITLE7=Ballet des Ores - La nymphe de l'aube
TTITLE8=Ballet des Ores - Chevauchée des neiges
TTITLE9=Ludmila
TTITLE10=Songe du lys
TTITLE11=Danse vénitienne
TTITLE12=Argentina
TTITLE13=L'odyssée des étoiles
TTITLE14=Nuance
TTITLE15=Danse latine
TTITLE16=Habanera
TTITLE17=Belle fleur
TTITLE18=La muse antique
TTITLE19=Le Toréador de Biset
TTITLE20=Prélude à Barrios
TTITLE21=Aurore
TTITLE22=Svetlana
TTITLE23=Noces flamandes
TTITLE24=Nostalgie
EXTD=YEAR: 1993
EXTT0=
EXTT1=
EXTT2=
EXTT3=
EXTT4=
EXTT5=
EXTT6=
EXTT7=
EXTT8=
EXTT9=
EXTT10=
EXTT11=
EXTT12=
EXTT13=
EXTT14=
EXTT15=
EXTT16=
EXTT17=
EXTT18=
EXTT19=
EXTT20=
EXTT21=
EXTT22=
EXTT23=
EXTT24=
PLAYORDER=
